<svg enable-background="new 0 0 1200 500" viewBox="0 0 1200 500" xmlns="http://www.w3.org/2000/svg" xmlns:xlink="http://www.w3.org/1999/xlink"><linearGradient id="a" gradientUnits="userSpaceOnUse" x1="578.0917" x2="609.0272" y1="779.7347" y2="336.6583"><stop offset="0" stop-color="#fff"/><stop offset="1" stop-color="#e8e8e8"/></linearGradient><linearGradient id="b" gradientUnits="userSpaceOnUse" x1="597.2668" x2="610.7383" y1="534.5328" y2="333.9601"><stop offset="0" stop-color="#fff"/><stop offset="1" stop-color="#fff"/></linearGradient><linearGradient id="c" gradientUnits="userSpaceOnUse" x1="595.1123" x2="618.4288" y1="552.7529" y2="205.5997"><stop offset="0" stop-color="#fff"/><stop offset="1" stop-color="#ebebeb"/></linearGradient><radialGradient id="d" cx="596.4576" cy="182.3025" gradientUnits="userSpaceOnUse" r="16.8394"><stop offset="0" stop-color="#ace3ef"/><stop offset="1" stop-color="#80cbee"/></radialGradient><path d="m0 0h1200v500h-1200z" fill="#6f5adb"/><path d="m1200 340.22c-6.25-5.32-14.34-8.53-23.18-8.53-19.8 0-35.86 16.09-35.86 35.94 0 1.23.06 2.45.18 3.66-2.75-1.77-6.01-2.81-9.51-2.81-9.74 0-17.63 7.91-17.63 17.67 0 2.46.51 4.81 1.41 6.94-2.17-1.85-4.98-2.96-8.05-2.96-6.89 0-12.47 5.59-12.47 12.5 0 3.32 1.3 6.32 3.4 8.56-1.55 2.12-2.64 4.6-3.11 7.3-1.32.31-2.56.82-3.68 1.51-3.21-3.38-7.74-5.5-12.77-5.5-9.74 0-17.63 7.91-17.63 17.67 0 6.27 3.27 11.76 8.18 14.9.12.58.27 1.14.45 1.69-2.55-1.44-5.49-2.27-8.63-2.27-6.6 0-12.34 3.64-15.36 9.01-.56-.05-1.13-.09-1.71-.09-4.87 0-9.28 1.98-12.47 5.18-.2 0-.4.02-.6.03-1.99-7.57-8.85-13.15-17.03-13.15-9.74 0-17.63 7.91-17.63 17.67 0 .75.06 1.49.15 2.21-5.58 1.66-10 6-11.78 11.54-1.88-.68-3.89-1.08-6.01-1.08-1.64 0-3.21.24-4.72.66-1.93-7.66-8.83-13.34-17.08-13.34-.21 0-.42.02-.63.03 4.25-3.23 7.01-8.33 7.01-14.08 0-9.66-7.73-17.5-17.33-17.66.33-1.34.52-2.74.52-4.18 0-9.76-7.89-17.67-17.63-17.67-8.43 0-15.46 5.93-17.21 13.85-2.02-.8-4.21-1.26-6.51-1.26-9.74 0-17.63 7.91-17.63 17.67 0 .17.02.34.03.52-1.31-.31-2.65-.48-4-.48-3.23-3.97-8.15-6.5-13.66-6.5-7.86 0-14.51 5.16-16.79 12.28-1.88-.68-3.89-1.08-6.01-1.08-9.74 0-17.63 7.91-17.63 17.67 0 2.2.42 4.3 1.16 6.25-.39 1.04-.69 2.11-.88 3.23-1.03-.19-2.09-.3-3.18-.3-6.71 0-12.54 3.76-15.52 9.28-1.87-2.36-4.32-4.24-7.14-5.4.4-1.23.63-2.54.63-3.91 0-6.9-5.58-12.5-12.47-12.5-4.61 0-8.62 2.51-10.78 6.24-2.65.52-5 1.88-6.76 3.8-.18-.42-.39-.83-.62-1.22 1.06-1.84 1.68-3.97 1.68-6.25 0-6.9-5.58-12.5-12.47-12.5-1.4 0-2.75.24-4 .67-1.28-6.5-6.12-11.7-12.4-13.52 1.25-1.95 1.98-4.26 1.98-6.75 0-5.61-3.68-10.35-8.76-11.93.24-.97.39-1.99.39-3.04 0-6.9-5.58-12.5-12.47-12.5-2.35 0-4.55.67-6.43 1.8-2.52-3.59-6.34-6.2-10.78-7.13 4.14-8.88 4.66-19.41.57-29.16-7.68-18.3-28.7-26.89-46.96-19.19-7.66 3.23-13.6 8.82-17.36 15.56-2.47-1.32-5.28-2.07-8.27-2.07-8.51 0-15.61 6.04-17.26 14.08-1.29-.45-2.67-.71-4.11-.71-1.74 0-3.4.36-4.91 1.01-2.16-1.8-4.93-2.88-7.95-2.88-6.76 0-12.26 5.4-12.45 12.13-2.36-6.98-8.93-12.01-16.69-12.01-3.91 0-7.52 1.29-10.44 3.46-.29-.14-.57-.28-.87-.4.4-1.23.63-2.54.63-3.91 0-6.9-5.58-12.5-12.47-12.5-2.84 0-5.45.96-7.54 2.56-2.28-2.87-5.79-4.71-9.74-4.71-.23 0-.46.02-.69.03-2.68-14.93-15.69-26.26-31.36-26.26-17.6 0-31.88 14.3-31.88 31.95 0 2.22.23 4.39.66 6.49-.73-.09-1.46-.15-2.21-.15-6.42 0-12.03 3.45-15.11 8.6-2.28-2.87-5.8-4.72-9.75-4.72-6.89 0-12.47 5.59-12.47 12.5 0 2.66.84 5.12 2.25 7.15-.11.68-.19 1.38-.19 2.09 0 .77.08 1.53.21 2.26-1.47 1.55-2.68 3.35-3.52 5.35-.45-.04-.91-.07-1.37-.07-9.74 0-17.63 7.91-17.63 17.67 0 3.72 1.15 7.16 3.1 10-2.63 2.99-4.25 6.87-4.37 11.14-3.54 1.47-6.49 4.08-8.43 7.36-3.05-2.52-6.95-4.04-11.21-4.04-5.08 0-9.64 2.16-12.85 5.6.19-1.05.31-2.13.31-3.24 0-9.76-7.89-17.67-17.63-17.67s-17.63 7.91-17.63 17.67c0 1.96.33 3.84.92 5.6-.59 1.76-.92 3.64-.92 5.6 0 2.64.59 5.14 1.63 7.39-2.09-.88-4.39-1.36-6.8-1.36-9.74 0-17.63 7.91-17.63 17.67 0 1.66.25 3.27.67 4.79-.23-.01-.45-.03-.67-.03-4.91 0-9.35 2.02-12.55 5.27-2.02-1.42-4.48-2.26-7.14-2.26-5.44 0-10.05 3.49-11.75 8.36-1.85-.66-3.84-1.04-5.91-1.04-1.91 0-3.74.31-5.46.88-1.4-8.36-8.63-14.73-17.37-14.73-6.82 0-12.73 3.89-15.66 9.58-2.02-1.42-4.48-2.26-7.13-2.26-6.89 0-12.47 5.59-12.47 12.5 0 .17.02.33.03.5-.03 0-.06.01-.09.01.03-.45.07-.9.07-1.36 0-3.3-.92-6.38-2.49-9.03.59-2.43.91-4.97.91-7.59 0-17.65-14.27-31.95-31.88-31.95-16.01 0-29.26 11.83-31.53 27.25-2.32-1.12-4.9-1.77-7.65-1.77-9.74 0-17.63 7.91-17.63 17.67 0 .92.09 1.82.23 2.71-.08-.03-.16-.07-.23-.1-.55-9.26-8.2-16.6-17.58-16.6-.47 0-.93.03-1.39.07.89-2.12 1.39-4.44 1.39-6.88 0-5.88-2.88-11.08-7.29-14.29.38-1.97.59-4.01.59-6.1 0-17.65-14.27-31.95-31.88-31.95-10.83 0-20.39 5.42-26.15 13.69-2.08-4.66-6.11-8.25-11.06-9.72-.61-9.21-8.23-16.49-17.57-16.49-5.06 0-9.61 2.15-12.83 5.57-1.25-1.63-2.88-2.95-4.78-3.8-.21-3.53-3.94-9.08-5.92-11.76l.5 141.81 1199.5-2v-203.16z" fill="#fff"/><path d="m1198 342.21c-6.25-5.32-14.34-8.53-23.18-8.53-19.8 0-35.86 16.09-35.86 35.94 0 1.23.06 2.45.18 3.66-2.75-1.77-6.01-2.81-9.51-2.81-9.74 0-17.63 7.91-17.63 17.67 0 2.46.51 4.81 1.41 6.94-2.17-1.85-4.98-2.96-8.05-2.96-6.89 0-12.47 5.59-12.47 12.5 0 3.32 1.3 6.32 3.4 8.56-1.55 2.12-2.64 4.6-3.11 7.3-1.32.31-2.56.82-3.68 1.51-3.21-3.38-7.74-5.5-12.77-5.5-9.74 0-17.63 7.91-17.63 17.67 0 6.27 3.27 11.76 8.18 14.9.12.58.27 1.14.45 1.69-2.55-1.44-5.49-2.27-8.63-2.27-6.6 0-12.34 3.64-15.36 9.01-.56-.05-1.13-.09-1.71-.09-4.87 0-9.28 1.98-12.47 5.18-.2 0-.4.02-.6.03-1.99-7.57-8.85-13.15-17.03-13.15-9.74 0-17.63 7.91-17.63 17.67 0 .75.06 1.49.15 2.21-5.58 1.66-10 6-11.78 11.54-1.88-.68-3.89-1.08-6.01-1.08-1.64 0-3.21.24-4.72.66-1.93-7.66-8.83-13.34-17.08-13.34-.21 0-.42.02-.63.03 4.25-3.23 7.01-8.33 7.01-14.08 0-9.66-7.73-17.5-17.33-17.66.33-1.34.52-2.74.52-4.18 0-9.76-7.89-17.67-17.63-17.67-8.43 0-15.46 5.93-17.21 13.85-2.02-.8-4.21-1.26-6.51-1.26-9.74 0-17.63 7.91-17.63 17.67 0 .17.02.34.03.52-1.31-.31-2.65-.48-4-.48-3.23-3.97-8.15-6.5-13.66-6.5-7.86 0-14.51 5.16-16.79 12.28-1.88-.68-3.89-1.08-6.01-1.08-9.74 0-17.63 7.91-17.63 17.67 0 2.2.42 4.3 1.16 6.25-.39 1.04-.69 2.11-.88 3.23-1.03-.19-2.09-.3-3.18-.3-6.71 0-12.54 3.76-15.52 9.28-1.87-2.36-4.32-4.24-7.14-5.4.4-1.23.63-2.54.63-3.91 0-6.9-5.58-12.5-12.47-12.5-4.61 0-8.62 2.51-10.78 6.24-2.65.52-5 1.88-6.76 3.8-.18-.42-.4-.83-.62-1.22 1.06-1.84 1.68-3.97 1.68-6.25 0-6.9-5.58-12.5-12.47-12.5-1.4 0-2.75.24-4 .67-1.28-6.5-6.12-11.7-12.4-13.52 1.25-1.95 1.98-4.26 1.98-6.75 0-5.61-3.68-10.35-8.76-11.93.24-.97.39-1.99.39-3.04 0-6.9-5.58-12.5-12.47-12.5-2.35 0-4.55.67-6.43 1.8-2.52-3.59-6.34-6.2-10.78-7.13 4.14-8.88 4.66-19.41.57-29.16-7.68-18.3-28.7-26.89-46.96-19.19-7.66 3.23-13.6 8.82-17.36 15.56-2.47-1.32-5.28-2.07-8.27-2.07-8.51 0-15.61 6.04-17.26 14.08-1.29-.45-2.67-.71-4.11-.71-1.74 0-3.4.36-4.91 1.01-2.16-1.8-4.93-2.88-7.95-2.88-6.76 0-12.26 5.4-12.45 12.13-2.36-6.98-8.93-12.01-16.69-12.01-3.91 0-7.52 1.29-10.44 3.46-.29-.14-.57-.28-.87-.4.4-1.23.63-2.54.63-3.91 0-6.9-5.58-12.5-12.47-12.5-2.84 0-5.45.96-7.54 2.56-2.28-2.87-5.79-4.71-9.74-4.71-.23 0-.46.02-.69.03-2.68-14.93-15.69-26.26-31.36-26.26-17.6 0-31.88 14.3-31.88 31.95 0 2.22.23 4.39.66 6.49-.73-.09-1.46-.15-2.21-.15-6.42 0-12.03 3.45-15.11 8.6-2.28-2.87-5.8-4.72-9.75-4.72-6.89 0-12.47 5.59-12.47 12.5 0 2.66.84 5.12 2.25 7.15-.11.68-.19 1.38-.19 2.09 0 .77.08 1.53.21 2.26-1.47 1.55-2.68 3.35-3.52 5.35-.45-.04-.91-.07-1.37-.07-9.74 0-17.63 7.91-17.63 17.67 0 3.72 1.15 7.16 3.1 10-2.63 2.99-4.25 6.87-4.37 11.14-3.54 1.47-6.49 4.08-8.43 7.36-3.05-2.52-6.95-4.04-11.21-4.04-5.08 0-9.64 2.16-12.85 5.6.19-1.05.31-2.13.31-3.24 0-9.76-7.89-17.67-17.63-17.67s-17.63 7.91-17.63 17.67c0 1.96.33 3.84.92 5.6-.59 1.76-.92 3.64-.92 5.6 0 2.64.59 5.14 1.63 7.39-2.09-.88-4.39-1.36-6.8-1.36-9.74 0-17.63 7.91-17.63 17.67 0 1.66.25 3.27.67 4.79-.23-.01-.45-.03-.67-.03-4.91 0-9.35 2.02-12.55 5.27-2.02-1.42-4.48-2.26-7.14-2.26-5.44 0-10.05 3.49-11.75 8.36-1.85-.66-3.84-1.04-5.91-1.04-1.91 0-3.74.31-5.46.88-1.4-8.36-8.63-14.73-17.37-14.73-6.82 0-12.73 3.89-15.66 9.58-2.02-1.42-4.48-2.26-7.13-2.26-6.89 0-12.47 5.59-12.47 12.5 0 .17.02.33.03.5-.03 0-.06.01-.09.01.03-.45.07-.9.07-1.36 0-3.3-.92-6.38-2.49-9.03.59-2.43.91-4.97.91-7.59 0-17.65-14.27-31.95-31.88-31.95-16.01 0-29.26 11.83-31.53 27.25-2.32-1.12-4.9-1.77-7.65-1.77-9.74 0-17.63 7.91-17.63 17.67 0 .92.09 1.82.23 2.71-.08-.03-.16-.07-.23-.1-.55-9.26-8.2-16.6-17.58-16.6-.47 0-.93.03-1.39.07.89-2.12 1.39-4.44 1.39-6.88 0-5.88-2.88-11.08-7.29-14.29.38-1.97.59-4.01.59-6.1 0-17.65-14.27-31.95-31.88-31.95-10.83 0-20.39 5.42-26.15 13.69-2.08-4.66-6.11-8.25-11.06-9.72-.61-9.21-8.23-16.49-17.57-16.49-5.06 0-9.61 2.15-12.83 5.57-1.25-1.63-2.88-2.95-4.78-3.8-.21-3.53-1.45-6.79-3.42-9.46v137.52h1197.49z" fill="url(#a)"/><path d="m1200 424.98c-1.6 2.17-2.61 4.81-2.78 7.67-1.54.69-2.87 1.76-3.88 3.08-2.61-2.78-6.31-4.52-10.42-4.52-7.59 0-13.78 5.9-14.28 13.37-4.02 1.19-7.29 4.1-8.98 7.88-4.68-6.7-12.45-11.09-21.24-11.09-14.3 0-25.9 11.59-25.9 25.9 0 1.69.17 3.34.48 4.94-3.58 2.6-5.92 6.82-5.92 11.58 0 1.98.4 3.86 1.13 5.58-.37-.03-.75-.06-1.13-.06-7.62 0-13.83 5.95-14.28 13.46-.06.03-.13.06-.19.08.11-.72.19-1.45.19-2.2 0-7.91-6.41-14.32-14.32-14.32-2.23 0-4.33.52-6.22 1.43-1.84-12.5-12.61-22.09-25.62-22.09-14.3 0-25.9 11.59-25.9 25.9 0 2.12.26 4.18.74 6.15-1.28 2.14-2.03 4.64-2.03 7.32 0 .37.03.74.06 1.1-.03 0-.05-.01-.08-.01.01-.14.02-.27.02-.4 0-5.59-4.53-10.13-10.13-10.13-2.16 0-4.15.68-5.8 1.83-2.38-4.61-7.18-7.76-12.72-7.76-7.1 0-12.97 5.17-14.11 11.94-1.4-.46-2.89-.71-4.44-.71-1.69 0-3.3.31-4.8.84-1.39-3.94-5.13-6.78-9.55-6.78-2.16 0-4.16.68-5.8 1.83-2.6-2.63-6.2-4.27-10.2-4.27-.19 0-.36.02-.55.03.35-1.24.55-2.54.55-3.89 0-7.91-6.41-14.32-14.32-14.32-1.96 0-3.82.39-5.52 1.11.84-1.82 1.33-3.85 1.33-5.99 0-1.59-.27-3.11-.75-4.54.48-1.43.75-2.95.75-4.54 0-7.91-6.41-14.32-14.32-14.32s-14.32 6.41-14.32 14.32c0 .9.09 1.77.25 2.62-2.61-2.79-6.32-4.54-10.44-4.54-3.46 0-6.64 1.23-9.11 3.27-1.57-2.66-3.97-4.77-6.85-5.96-.1-3.46-1.42-6.61-3.55-9.03 1.59-2.31 2.52-5.1 2.52-8.11 0-7.91-6.41-14.32-14.32-14.32-.38 0-.75.03-1.12.06-.68-1.62-1.66-3.09-2.86-4.34.11-.59.17-1.2.17-1.83 0-.58-.06-1.14-.15-1.7 1.15-1.64 1.83-3.64 1.83-5.79 0-5.59-4.53-10.13-10.13-10.13-3.21 0-6.06 1.5-7.92 3.82-2.5-4.17-7.06-6.97-12.28-6.97-.61 0-1.21.05-1.8.13.35-1.7.53-3.46.53-5.26 0-14.3-11.59-25.9-25.9-25.9-12.73 0-23.31 9.19-25.48 21.29-.19-.01-.37-.03-.56-.03-3.2 0-6.06 1.49-7.91 3.81-1.7-1.3-3.82-2.08-6.13-2.08-5.59 0-10.13 4.53-10.13 10.13 0 1.11.18 2.17.51 3.17-.24.1-.47.21-.7.32-2.38-1.75-5.3-2.8-8.48-2.8-6.3 0-11.64 4.08-13.56 9.73-.16-5.46-4.62-9.84-10.11-9.84-2.46 0-4.71.88-6.46 2.33-1.23-.53-2.57-.82-3.99-.82-1.17 0-2.29.21-3.34.58-1.35-6.51-7.11-11.41-14.03-11.41-2.43 0-4.71.61-6.72 1.68-3.06-5.47-7.89-9.99-14.11-12.61-14.83-6.24-31.91.72-38.15 15.55-3.32 7.9-2.9 16.44.46 23.63-3.61.76-6.71 2.87-8.76 5.78-1.53-.92-3.31-1.46-5.22-1.46-5.59 0-10.13 4.53-10.13 10.13 0 .85.12 1.67.31 2.46-4.12 1.28-7.12 5.13-7.12 9.67 0 2.02.6 3.89 1.61 5.47-5.1 1.47-9.03 5.69-10.08 10.96-1.02-.35-2.11-.54-3.25-.54-5.59 0-10.13 4.53-10.13 10.13 0 1.85.5 3.57 1.37 5.06-.19.32-.36.65-.51.99-1.43-1.55-3.34-2.66-5.49-3.08-1.75-3.02-5.02-5.06-8.76-5.06-5.59 0-10.13 4.53-10.13 10.13 0 1.11.18 2.17.51 3.17-2.3.94-4.29 2.46-5.8 4.37-2.42-4.48-7.16-7.53-12.61-7.53-.88 0-1.74.09-2.58.24-.16-.91-.4-1.78-.71-2.62.6-1.58.94-3.28.94-5.06 0-7.91-6.41-14.32-14.32-14.32-1.72 0-3.36.32-4.88.87-1.85-5.77-7.25-9.95-13.64-9.95-4.48 0-8.47 2.06-11.1 5.27-1.1 0-2.18.14-3.25.39 0-.14.02-.28.02-.42 0-7.91-6.41-14.32-14.32-14.32-1.87 0-3.65.37-5.29 1.02-1.42-6.42-7.13-11.23-13.98-11.23-7.91 0-14.32 6.41-14.32 14.32 0 1.17.16 2.3.42 3.39-7.8.13-14.08 6.48-14.08 14.31 0 4.67 2.24 8.8 5.7 11.42-.17-.01-.34-.03-.51-.03-6.7 0-12.3 4.6-13.87 10.81-1.22-.34-2.5-.53-3.83-.53-1.72 0-3.36.32-4.88.87-1.44-4.49-5.03-8.01-9.57-9.36.07-.59.12-1.18.12-1.79 0-7.91-6.41-14.32-14.32-14.32-6.64 0-12.21 4.53-13.83 10.66-.16-.01-.32-.02-.49-.02-2.59-2.59-6.17-4.2-10.13-4.2-.47 0-.93.03-1.39.07-2.46-4.36-7.12-7.31-12.48-7.31-2.55 0-4.94.67-7.01 1.84.14-.45.27-.91.37-1.37 3.99-2.54 6.64-7 6.64-12.08 0-7.91-6.41-14.32-14.32-14.32-4.09 0-7.76 1.72-10.37 4.46-.91-.56-1.92-.98-2.99-1.23-.39-2.19-1.27-4.19-2.53-5.92 1.71-1.81 2.76-4.25 2.76-6.94 0-5.59-4.53-10.13-10.13-10.13-2.5 0-4.78.91-6.54 2.4.74-1.73 1.15-3.63 1.15-5.62 0-7.91-6.41-14.32-14.32-14.32-2.85 0-5.5.84-7.73 2.28.1-.97.15-1.96.15-2.96 0-16.09-13.04-29.13-29.13-29.13-15.2 0-27.67 11.64-29.01 26.5-4.02-2.56-8.78-4.05-13.9-4.05-10.81 0-20.06 6.62-23.95 16.03-.72-.16-1.47-.26-2.25-.26-4.41 0-8.16 2.83-9.55 6.77-1.5-.53-3.1-.83-4.78-.83-7.91 0-14.32 6.41-14.32 14.32 0 4.81 2.38 9.06 6.02 11.65-5.44 1.83-9.4 6.83-9.72 12.8-.01 0-.03 0-.04 0-7.91 0-14.32 6.41-14.32 14.32 0 3.86 1.54 7.36 4.02 9.94-3.3.99-6.35 2.58-9.02 4.63-1.54-3.63-5.14-6.18-9.33-6.18-3.99 0-7.44 2.32-9.09 5.68-2.46-1.98-5.58-3.17-8.98-3.17-.9 0-1.78.09-2.64.25.03-.34.05-.68.05-1.02 0-5.59-4.54-10.13-10.13-10.13s-10.13 4.53-10.13 10.13c0 .73.08 1.43.22 2.11-1.84-.85-3.87-1.35-6.03-1.35-5.18 0-9.71 2.76-12.23 6.89-1.79-2.94-4.6-5.19-7.95-6.24 1.29-2.15 2.05-4.66 2.05-7.35 0-7.91-6.41-14.32-14.32-14.32-4.72 0-8.89 2.29-11.5 5.81-1.14-2.41-3.2-4.29-5.73-5.2.54-1.24.84-2.6.84-4.03 0-5.59-4.53-10.13-10.13-10.13-3.02 0-7.73 3.32-9.58 5.43l2 92.65h1197.46z" fill="url(#b)"/><path d="m1198 426.98c-1.6 2.17-2.61 4.81-2.78 7.67-1.54.69-2.87 1.76-3.88 3.08-2.61-2.78-6.31-4.52-10.42-4.52-7.59 0-13.78 5.9-14.28 13.37-4.02 1.19-7.29 4.1-8.98 7.88-4.68-6.7-12.45-11.09-21.24-11.09-14.3 0-25.9 11.59-25.9 25.9 0 1.69.17 3.34.48 4.94-3.58 2.6-5.92 6.82-5.92 11.58 0 1.98.4 3.86 1.13 5.58-.37-.03-.75-.06-1.13-.06-7.62 0-13.83 5.95-14.28 13.46-.06.03-.13.06-.19.08.11-.72.19-1.45.19-2.2 0-7.91-6.41-14.32-14.32-14.32-2.23 0-4.33.52-6.22 1.43-1.84-12.5-12.61-22.09-25.62-22.09-14.3 0-25.9 11.59-25.9 25.9 0 2.12.26 4.18.74 6.15-1.28 2.14-2.03 4.64-2.03 7.32 0 .37.03.74.06 1.1-.03 0-.05-.01-.08-.01.01-.14.02-.27.02-.4 0-5.59-4.53-10.13-10.13-10.13-2.16 0-4.15.68-5.8 1.83-2.38-4.61-7.18-7.76-12.72-7.76-7.1 0-12.97 5.17-14.11 11.94-1.4-.46-2.89-.71-4.44-.71-1.69 0-3.3.31-4.8.84-1.39-3.94-5.13-6.78-9.55-6.78-2.16 0-4.16.68-5.8 1.83-2.6-2.63-6.2-4.27-10.2-4.27-.18 0-.36.02-.55.03.35-1.24.55-2.54.55-3.89 0-7.91-6.41-14.32-14.32-14.32-1.96 0-3.82.39-5.52 1.11.84-1.82 1.33-3.85 1.33-5.99 0-1.59-.27-3.11-.75-4.54.48-1.43.75-2.95.75-4.54 0-7.91-6.41-14.32-14.32-14.32s-14.32 6.41-14.32 14.32c0 .9.09 1.77.25 2.62-2.61-2.79-6.32-4.54-10.44-4.54-3.46 0-6.64 1.23-9.11 3.27-1.57-2.66-3.97-4.77-6.85-5.96-.1-3.46-1.42-6.61-3.55-9.03 1.59-2.31 2.52-5.1 2.52-8.11 0-7.91-6.41-14.32-14.32-14.32-.38 0-.75.03-1.12.06-.68-1.62-1.66-3.09-2.86-4.34.11-.59.17-1.2.17-1.83 0-.58-.06-1.14-.15-1.69 1.15-1.64 1.83-3.64 1.83-5.79 0-5.59-4.53-10.13-10.13-10.13-3.21 0-6.06 1.5-7.92 3.82-2.5-4.17-7.06-6.97-12.28-6.97-.61 0-1.21.05-1.8.13.35-1.7.54-3.46.54-5.26 0-14.3-11.59-25.9-25.9-25.9-12.73 0-23.31 9.19-25.48 21.29-.19-.01-.37-.03-.56-.03-3.2 0-6.06 1.49-7.91 3.81-1.7-1.3-3.82-2.08-6.13-2.08-5.59 0-10.13 4.53-10.13 10.13 0 1.11.18 2.17.51 3.17-.24.1-.47.21-.7.32-2.38-1.75-5.3-2.8-8.48-2.8-6.3 0-11.64 4.08-13.56 9.73-.16-5.46-4.62-9.84-10.11-9.84-2.46 0-4.71.88-6.46 2.33-1.23-.53-2.57-.82-3.99-.82-1.17 0-2.29.21-3.34.58-1.35-6.51-7.11-11.41-14.03-11.41-2.43 0-4.71.61-6.72 1.68-3.06-5.47-7.89-9.99-14.11-12.61-14.83-6.24-31.91.72-38.15 15.55-3.32 7.9-2.9 16.44.46 23.63-3.61.76-6.71 2.87-8.76 5.78-1.53-.92-3.31-1.46-5.22-1.46-5.59 0-10.13 4.53-10.13 10.13 0 .85.12 1.67.31 2.46-4.12 1.28-7.12 5.13-7.12 9.67 0 2.02.6 3.89 1.61 5.47-5.1 1.47-9.03 5.69-10.08 10.96-1.02-.35-2.11-.54-3.25-.54-5.59 0-10.13 4.53-10.13 10.13 0 1.85.5 3.57 1.37 5.06-.19.32-.36.65-.51.99-1.43-1.55-3.34-2.66-5.49-3.08-1.75-3.02-5.02-5.06-8.76-5.06-5.59 0-10.13 4.53-10.13 10.13 0 1.11.18 2.17.51 3.17-2.3.94-4.29 2.46-5.8 4.37-2.42-4.48-7.16-7.53-12.61-7.53-.88 0-1.74.09-2.58.24-.16-.91-.4-1.78-.72-2.62.6-1.58.94-3.28.94-5.06 0-7.91-6.41-14.32-14.32-14.32-1.72 0-3.36.32-4.88.87-1.85-5.77-7.25-9.95-13.64-9.95-4.48 0-8.47 2.06-11.1 5.27-1.1 0-2.18.14-3.25.39 0-.14.02-.28.02-.42 0-7.91-6.41-14.32-14.32-14.32-1.87 0-3.65.37-5.29 1.02-1.42-6.42-7.13-11.23-13.98-11.23-7.91 0-14.32 6.41-14.32 14.32 0 1.17.16 2.3.42 3.39-7.8.13-14.08 6.48-14.08 14.31 0 4.67 2.24 8.8 5.7 11.42-.17-.01-.34-.03-.51-.03-6.7 0-12.3 4.6-13.87 10.81-1.22-.34-2.5-.53-3.83-.53-1.72 0-3.36.32-4.88.87-1.44-4.49-5.03-8.01-9.57-9.36.07-.59.12-1.18.12-1.79 0-7.91-6.41-14.32-14.32-14.32-6.64 0-12.21 4.53-13.83 10.66-.16-.01-.32-.02-.49-.02-2.59-2.59-6.17-4.2-10.13-4.2-.47 0-.93.03-1.39.07-2.46-4.36-7.12-7.31-12.48-7.31-2.55 0-4.94.67-7.01 1.84.14-.45.27-.91.37-1.37 3.99-2.54 6.64-7 6.64-12.08 0-7.91-6.41-14.32-14.32-14.32-4.09 0-7.76 1.72-10.37 4.46-.91-.56-1.92-.98-2.99-1.23-.39-2.19-1.27-4.19-2.53-5.92 1.71-1.81 2.76-4.25 2.76-6.94 0-5.59-4.53-10.13-10.13-10.13-2.5 0-4.78.91-6.54 2.4.74-1.73 1.15-3.63 1.15-5.62 0-7.91-6.41-14.32-14.32-14.32-2.85 0-5.5.84-7.73 2.28.1-.97.15-1.96.15-2.96 0-16.09-13.04-29.13-29.13-29.13-15.2 0-27.67 11.64-29.01 26.5-4.02-2.56-8.78-4.05-13.9-4.05-10.81 0-20.06 6.62-23.95 16.03-.72-.16-1.47-.26-2.25-.26-4.41 0-8.16 2.83-9.55 6.77-1.5-.53-3.1-.83-4.78-.83-7.91 0-14.32 6.41-14.32 14.32 0 4.81 2.38 9.06 6.02 11.65-5.44 1.83-9.4 6.83-9.72 12.8-.01 0-.03 0-.04 0-7.91 0-14.32 6.41-14.32 14.32 0 3.86 1.54 7.36 4.02 9.94-3.3.99-6.35 2.58-9.02 4.63-1.54-3.63-5.14-6.18-9.33-6.18-3.99 0-7.44 2.32-9.09 5.68-2.46-1.98-5.58-3.17-8.98-3.17-.9 0-1.78.09-2.64.25.03-.34.05-.68.05-1.02 0-5.59-4.53-10.13-10.13-10.13-5.59 0-10.13 4.54-10.13 10.13 0 .73.08 1.43.22 2.11-1.84-.85-3.87-1.35-6.03-1.35-5.18 0-9.71 2.76-12.23 6.89-1.79-2.94-4.6-5.19-7.95-6.24 1.29-2.15 2.05-4.66 2.05-7.35 0-7.91-6.41-14.32-14.32-14.32-4.72 0-8.89 2.29-11.5 5.81-1.14-2.41-3.2-4.29-5.73-5.2.54-1.24.84-2.6.84-4.03 0-5.59-4.54-10.13-10.13-10.13-3.02 0-5.73 1.33-7.58 3.43v94.64h1197.46z" fill="url(#c)"/><path d="m605.94 766.29h-9.99l-16.09-437.99h40.17z" fill="#fff"/><path d="m576.66 346.8c0 30.33 23.34 115.74 23.34 115.74s23.34-85.41 23.34-115.74-10.45-33.02-23.34-33.02-23.34 2.69-23.34 33.02z" fill="#e8a026"/><path d="m583.11 336.62c0 20.98 16.89 80.06 16.89 80.06s16.89-59.08 16.89-80.06-7.56-22.84-16.89-22.84-16.89 1.86-16.89 22.84z" fill="#f1cc38"/><path d="m589.46 326.91c0 12.06 4.72 46.02 10.54 46.02s10.54-33.96 10.54-46.02-4.72-13.13-10.54-13.13-10.54 1.07-10.54 13.13z" fill="#f8e9e4"/><path d="m568.05 267.57c-11.38 6.47-22.34 14.34-32.73 24.03-6.3 5.87-9.57 14.33-8.78 22.91 1.51 16.34 5.62 34.83 12.03 55.2.3.96 1.68.9 1.89-.08 5.56-25.87 11.38-49.37 18.26-63.23l12.02-20.69z" fill="#e38028"/><path d="m568.92 273.44c-5.98 10.84-19.45 56.52-14.3 42.6 1.33-3.58 2.69-6.82 4.1-9.65l12.02-20.69z" opacity=".06"/><path d="m558.45 273.44c-7.96 5.22-15.69 11.22-23.13 18.16-6.3 5.87-9.57 14.33-8.78 22.91 1.51 16.34 5.62 34.83 12.03 55.2-3.75-45.24 19.88-71.42 19.88-96.27z" fill="#fff" opacity=".09"/><path d="m552.08 282.35c1.39.66-4.02 8-9 18.47s-7.63 20.11-9.03 19.44c-1.39-.66-3.15-12.47 1.83-22.94s14.8-15.64 16.2-14.97z" fill="#fff" opacity=".23"/><path d="m631.95 267.57c11.38 6.47 22.34 14.34 32.73 24.03 6.3 5.87 9.57 14.33 8.78 22.91-1.51 16.34-5.62 34.83-12.03 55.2-.3.96-1.68.9-1.89-.08-5.56-25.87-11.38-49.37-18.26-63.23l-12.02-20.69z" fill="#e38028"/><path d="m631.08 273.44c5.98 10.84 19.45 56.52 14.3 42.6-1.33-3.58-2.69-6.82-4.1-9.65l-12.02-20.69z" opacity=".06"/><path d="m641.55 273.44c7.96 5.22 15.69 11.22 23.13 18.16 6.3 5.87 9.57 14.33 8.78 22.91-1.51 16.34-5.62 34.83-12.03 55.2 3.75-45.24-19.88-71.42-19.88-96.27z" fill="#fff" opacity=".09"/><path d="m657.71 289.06c-.85.4 2.06 5.21 5.09 11.58s5.03 11.89 5.88 11.48c.85-.4 1.69-7.29-1.34-13.66s-8.78-9.81-9.63-9.4z" fill="#fff" opacity=".23"/><path d="m615.93 318.97c-10.27-.66-20.87-.62-31.78.03-.27.02-.54-.01-.8-.1-3.07-1.01-5.72-2.88-5.72-6.23v-14.65c0-3.49 2.75-6.35 6.11-6.35h33.07c3.36 0 6.11 2.86 6.11 6.35v14.65c0 3.14-2.33 4.99-5.15 6.03-.6.23-1.22.31-1.84.27z" fill="#929292"/><path d="m618.03 291.81-1.23-.13c1.11 10.88.41 19.9-.79 27.3.59.03 1.18-.05 1.74-.26 2.82-1.04 5.15-2.89 5.15-6.03v-14.65c.01-3.5-1.51-6.23-4.87-6.23z" opacity=".18"/><path d="m620.1 309.98c-12.78.33-26.05.27-39.83-.01-.2 0-.39-.03-.58-.09-3.85-1.17-7.21-3.39-7.21-7.41v-17.29c0-4.12 3.37-7.49 7.49-7.49h40.59c4.12 0 7.49 3.37 7.49 7.49v17.29c0 3.97-3.27 6.18-7.05 7.36-.29.1-.59.15-.9.15z" fill="#4e4e4e"/><path d="m620.66 277.67-1.1-.01c.79 11.47.09 22.25-1.08 32.32.51-.01 1.01-.01 1.52-.02.3-.01.61-.05.9-.14 3.79-1.16 7.07-3.35 7.1-7.32l.11-17.29c.03-4.12-3.33-7.51-7.45-7.54z" opacity=".18"/><path d="m634.68 292.61c-.92 4.18-3.9 7.56-8.16 8.04-8.94 1-18.19.53-26.92.56-8.73-.03-17.17.44-26.11-.56-4.26-.47-7.24-3.86-8.16-8.04-24.49-111.49 28.03-191.28 34.68-192.61 6.65 1.33 59.17 81.12 34.67 192.61z" fill="#ebebeb"/><path d="m594.02 290.49 5.37-19.86c.14-1.01 1.11-1.01 1.24 0l5.37 19.86c-.93 27.55-2.95 58.64-5.57 91.7-.04.56-.79.56-.84 0-2.68-33.44-4.75-64.76-5.57-91.7z" fill="#e38028"/><path d="m572.84 149.46c8.36-.96 19.97-1.02 28.05-1.02 7.55 0 18.25.12 26.26.97-10.65-30.67-24.01-48.78-27.15-49.41-3.13.63-16.5 18.76-27.16 49.46z" fill="#e38028"/><path d="m588.79 151.62-8.63.4c-16.96 38.73-12.45 94.2-7.1 141.86.71 2.42 2.11 4.54 4.63 4.54h12.65c-6.7-57.58-10.03-91.61-1.55-146.8z" fill="#fff"/><path d="m590.28 146.5c.98-6.07 2.03-11.99 3.31-18.64-4.54 5.8-8.3 12.19-11.4 19.04z" fill="#fff" opacity=".38"/><path d="m600.27 209.56c-12.27 0-22.29-9.65-22.87-21.77-.02.37-.03.75-.03 1.13 0 12.65 10.25 22.9 22.9 22.9s22.9-10.25 22.9-22.9c0-.38-.01-.76-.03-1.13-.59 12.12-10.6 21.77-22.87 21.77z" opacity=".25"/><ellipse cx="600.27" cy="185.8" fill="#41726f" rx="22.93" ry="22.93" transform="matrix(.2465 -.9691 .9691 .2465 272.2281 721.7368)"/><ellipse cx="600.27" cy="185.8" fill="#3a6661" rx="18.87" ry="18.87" transform="matrix(.2287 -.9735 .9735 .2287 282.1256 727.6706)"/><circle cx="600.27" cy="185.8" fill="url(#d)" r="15.77"/><path d="m600.27 173.82c8.07 0 14.71 6.06 15.65 13.87.07-.62.12-1.25.12-1.9 0-8.71-7.06-15.77-15.77-15.77s-15.77 7.06-15.77 15.77c0 .64.04 1.27.12 1.9.94-7.81 7.58-13.87 15.65-13.87z" fill="#7cbae0"/><path d="m612.01 189.33c1.33 2.03.18 5.13-2.56 6.92s-6.04 1.59-7.37-.44-.18-5.13 2.56-6.92 6.04-1.59 7.37.44z" fill="#73b0e0"/><g fill="#fff"><path d="m601.75 175.71c.21 1.14-.82 1.61-2.3 1.88s-2.86.24-3.07-.91.83-2.29 2.31-2.56c1.48-.26 2.85.45 3.06 1.59z" opacity=".56"/><path d="m593.8 177.46c.95.82-.08 2.61-1.73 4.52s-3.3 3.21-4.25 2.38-.68-3.46.97-5.37c1.64-1.9 4.06-2.35 5.01-1.53z" opacity=".56"/><path d="m593.45 165.6c.03.34-5.47 2.63-8.78 6.62-4.12 4.97-5 10.19-5.29 9.95s.31-6.08 4.34-10.74c4.37-5.04 9.7-6.24 9.73-5.83z" opacity=".52"/><path d="m605.92 206.34c.08-.32 7.38-3.16 11.13-8.46 4.67-6.6 4.56-13.81 4.71-13.71.15.11.6 8.1-3.91 14.37-4.88 6.78-12.02 8.18-11.93 7.8z" opacity=".52"/></g><path d="m600.01 100c-2.78.56-13.57 14.81-23.4 39.36 41.33-60.92 64.54 72.46 45.22 161.68 0 0 3.19-.23 4.7-.4 4.26-.47 7.24-3.86 8.16-8.04 24.49-111.48-28.03-191.27-34.68-192.6z" opacity=".08"/><path d="m600.63 270.63c-.06-.47-.31-.71-.56-.75v112.71c.18-.03.34-.16.36-.41 2.62-33.06 4.64-64.15 5.57-91.7z" opacity=".06"/><path d="m590.33 308.63h-8.49c-1.42 0-2.57-1.15-2.57-2.57v-3.15h11.06z" fill="#fff" opacity=".17"/><path d="m591.25 317.4-6.44.03c-1.58 0-2.86-1.28-2.86-2.86v-2.96l9.3-.03z" fill="#fff" opacity=".17"/><path d="m599.87 270.68-1.37 19.64 1.51 52.28z" fill="#fff" opacity=".23"/></svg>